<?xml version="1.0" encoding="utf-8"?>
<!-- Generator: Adobe Illustrator 16.0.4, SVG Export Plug-In . SVG Version: 6.00 Build 0)  -->
<!DOCTYPE svg PUBLIC "-//W3C//DTD SVG 1.1//EN" "http://www.w3.org/Graphics/SVG/1.1/DTD/svg11.dtd">
<svg version="1.1" id="Layer_1" xmlns="http://www.w3.org/2000/svg" xmlns:xlink="http://www.w3.org/1999/xlink" x="0px" y="0px"
	 width="200px" height="200px" viewBox="0 0 200 200" enable-background="new 0 0 200 200" xml:space="preserve">
<g>
	<path d="M0.867,177.597c0-3.044,0-6.088,0-9.133c3.128-9.858,8.551-18.438,15.1-26.299c2.949-3.538,3.846-7.302,3.723-11.771
		c-0.146-5.296-0.17-10.677,0.579-15.903c2.98-20.801,16.762-35.937,35.996-36.97c0.707-0.037,1.398-0.39,2.336-0.667
		c-1.797-4.065-3.499-7.912-5.2-11.759c0.335-0.188,0.67-0.374,1.004-0.561c3.058,2.105,6.115,4.21,9.344,6.434
		c0-11.531,0-22.558,0-34.336c3.474,3.083,6.353,5.637,9.773,8.673c1.095-14.047,2.119-27.179,3.143-40.311c0.305,0,0.609,0,0.914,0
		c5.421,11.771,10.842,23.543,16.502,35.835c5.381-7.493,10.368-14.437,15.355-21.38c0.404,0.13,0.811,0.261,1.214,0.392
		c0.961,10.911,1.923,21.82,2.958,33.581c7.042-5.422,13.443-10.354,20.903-16.097c-0.796,6.092-1.4,10.715-2.005,15.339
		c0.458,0.418,0.916,0.836,1.376,1.256c2.285-3.358,4.57-6.715,6.857-10.073c0.528,0.364,1.058,0.728,1.587,1.092
		c0.469,1.988,0.935,3.976,1.51,6.416c13.481-10.096,25.801-21.436,39.514-30.884c0.33,0.315,0.659,0.629,0.99,0.943
		c-5.483,14.167-10.967,28.335-16.842,43.519c5.021-3.007,8.944-5.358,12.869-7.709c0.285,0.253,0.571,0.506,0.857,0.758
		c-2.999,7.828-5.998,15.655-9.327,24.349c7.343-1.927,13.744-3.606,21.188-5.559c-3.956,8.623-7.338,15.997-11.188,24.389
		c6.646,0,12.252,0,17.858,0c0.104,0.384,0.208,0.769,0.312,1.154c-9.473,8.757-18.943,17.512-28.965,26.776
		c5.687,0.862,10.354,1.57,15.021,2.277c0.031,0.458,0.059,0.915,0.089,1.372c-7.643,3.171-15.286,6.341-22.856,9.48
		c0.067,0.441,0.047,0.619,0.119,0.738c0.715,1.16,1.492,2.284,2.161,3.471c5.616,9.958,5.648,20.113,0.267,30.036
		c-5.398,9.952-14.5,14.459-25.463,15.161c-7.386,0.472-9.645-2.312-7.441-8.771c-7.002,1.812-14.326,0.233-20.814,4.521
		c-2.568,1.696-6.363,1.951-9.622,2.037c-1.994,0.053-4.241-1.188-5.892-2.471c-0.394-0.307,1.144-3.098,1.887-4.986
		c-0.921-0.295-2.254-0.572-3.458-1.13c-8.545-3.963-19.358-4.658-22.969-15.811c-0.059-0.18-0.476-0.245-0.726-0.364
		c0.144,0.372,0.288,0.744,0.433,1.116c-6.23,2.565-12.35,5.474-18.747,7.515c-2.397,0.765-6.252,0.396-7.918-1.127
		c-1.22-1.113-0.302-5.039,0.312-7.552c0.554-2.269,1.99-4.319,3.408-7.228c-2.595,1.196-4.717,1.909-6.558,3.068
		c-9.516,5.986-18.968,12.077-28.429,18.152C7.957,182.422,5.083,182.219,0.867,177.597z M136.375,182.473
		c3.666,2,6.499,3.633,9.424,5.088c0.944,0.471,2.315,0.959,3.163,0.619c9.443-3.786,16.223-9.976,18.076-20.522
		c2.381-13.541-3.68-19.172-13.852-21.557c-3.512-0.823-7.625-0.229-11.218,0.682c-7.875,1.999-14.72,0.93-21.63-3.651
		c-10.749-7.127-22.202-9.197-34.124-1.854c0.728-1.379,1.872-2.527,2.561-3.903c1.54-3.073,3.727-6.159,4.105-9.419
		c1.442-12.443-6.986-24.525-18.545-27.478c-12.651-3.232-25.617,2.708-30.334,14.916c-2.128,5.51-3.079,11.826-2.978,17.749
		c0.103,5.994-1.75,10.046-6.226,13.731c-8.328,6.859-16.28,14.173-24.563,21.09c-2.003,1.671-4.688,2.529-8.051,4.278
		c0.848,1.682,1.48,5.106,3.276,5.901c1.912,0.846,5.29-0.194,7.395-1.462c8.07-4.859,15.969-10.017,23.776-15.292
		c12.612-8.523,27.917-9.019,41.451-14.755c0.146,0.371,0.294,0.741,0.44,1.111c-4.244,1.806-8.488,3.612-12.911,5.494
		c3.019,3.769,5.885,7.351,8.834,11.033c5.583-9.938,10.763-14.846,16.424-15.327c-2.067,1.631-4.169,2.771-5.558,4.491
		c-3.017,3.735-6.294,7.474-8.3,11.756c-2.121,4.528,0.104,7.024,5.05,6.803c7.238-0.322,13.724-2.59,18.917-7.844
		c1.096-1.11,1.933-2.477,2.889-3.726c0.348,0.398,0.696,0.798,1.044,1.196c-4.053,7.712-11.315,10.984-20.568,13.119
		c16.662,7.555,32.752,8.723,49.701,6.413c-8.56-13.283-8.625-24.26-0.293-28.403c-6.425,8.872-6.166,17.305,0.775,25.579
		C135.613,179.628,135.974,181.535,136.375,182.473z M105.786,78.627c-1.573-7.157-3.091-14.07-4.608-20.984
		c-0.615,0.082-1.229,0.164-1.842,0.246c-0.446,6.892-0.892,13.784-1.365,21.102c-2.555-2.676-4.638-4.859-6.722-7.041
		c-0.808,1.321-0.894,2.077-0.699,2.752c3.329,11.535,6.665,23.067,10.091,34.574c0.326,1.096,1.078,2.224,1.947,2.975
		c4.883,4.211,9.863,8.31,15.192,12.767c1.208-0.634,3.159-1.657,5.201-2.729c0.445,1.311,0.731,2.155,1.05,3.093
		c3.996-2.453,7.638-4.688,11.28-6.923c0.265,0.32,0.529,0.641,0.794,0.96c-0.945,1.832-1.893,3.664-2.925,5.663
		c2.75,1.516,5.881,2.556,8.072,4.6c4.14,3.858,6.319,4.41,10.597,1.092c3.723-2.891,7.403-5.841,11.018-8.864
		c1.15-0.963,2.034-2.246,3.04-3.383c-0.211-0.342-0.423-0.684-0.633-1.024c-2.567,0.41-5.134,0.821-8.644,1.384
		c3.815-4.033,6.97-7.367,10.123-10.701c-0.225-0.381-0.448-0.763-0.673-1.145c-2.296,0.479-4.591,0.955-7.409,1.541
		c2.327-4.442,4.346-8.295,6.363-12.149c-0.425-0.28-0.85-0.561-1.274-0.841c-2.791,2.093-5.581,4.187-8.372,6.278
		c-0.171-0.175-0.341-0.351-0.512-0.525c2.04-4.235,4.083-8.47,6.594-13.679c-2.604,0.718-3.82,1.054-5.408,1.493
		c1.243-3.633,2.354-6.879,3.464-10.126c-0.606-0.393-1.213-0.788-1.82-1.181c-1.646,2.217-3.294,4.435-4.941,6.652
		c-0.282-0.232-0.565-0.465-0.847-0.697c1.869-6.775,3.74-13.549,5.611-20.325c-0.565-0.232-1.132-0.465-1.696-0.698
		c-3.516,4.717-7.033,9.433-10.868,14.576c-0.409-2.474-0.687-4.139-0.963-5.805c-0.38-0.082-0.762-0.164-1.141-0.246
		c-3.761,6.643-7.522,13.286-11.397,20.129c-0.883-1.898-1.596-3.434-2.31-4.97c-0.466-0.243-0.932-0.486-1.396-0.728
		c-0.57,1.317-1.141,2.635-1.955,4.519c-1.428-4.922-2.507-8.641-3.585-12.36c-0.579,0.089-1.159,0.178-1.739,0.267
		c0,5.781,0,11.562,0,17.342c-2.514-2.753-4.441-3.531-6.625-0.114c-1.773-6.924-3.407-13.298-5.299-20.685
		C107.192,76.64,106.562,77.528,105.786,78.627z M70.225,162.626c-0.93-1.303-1.706-2.418-2.508-3.514
		c-4.467-6.105-4.471-6.11-11.556-4.157c-5.631,1.553-7.332,6.419-9.014,11.103c-1.466,4.081-0.399,5.427,3.86,5.151
		C58.404,170.729,64.566,167.405,70.225,162.626z M144.45,190.174c0.174-0.697,0.346-1.396,0.519-2.092
		c-2.711-1.052-5.369-2.31-8.165-3.042c-0.942-0.248-2.234,0.836-3.368,1.312c0.779,0.987,1.412,2.631,2.365,2.843
		C138.616,189.824,141.558,189.89,144.45,190.174z M102.39,182.992c3.713,0.523,7.095,6.638,11.395,1.31
		C109.88,183.854,106.134,183.424,102.39,182.992z M106.442,186.241c-2.802-0.522-5.604-1.045-9.415-1.757
		C100.008,188.543,101.234,188.779,106.442,186.241z"/>
	<path fill-rule="evenodd" clip-rule="evenodd" fill="none" d="M0.867,177.597c4.216,4.622,7.089,4.825,13.04,1.002
		c9.46-6.075,18.913-12.166,28.429-18.152c1.841-1.159,3.963-1.872,6.558-3.068c-1.418,2.908-2.854,4.959-3.408,7.228
		c-0.614,2.513-1.532,6.438-0.312,7.552c1.666,1.522,5.521,1.892,7.918,1.127c6.397-2.041,12.517-4.949,18.747-7.515
		c-0.145-0.372-0.289-0.744-0.433-1.116c0.25,0.119,0.667,0.185,0.726,0.364c3.611,11.152,14.424,11.848,22.969,15.811
		c1.204,0.558,2.537,0.835,3.458,1.13c-0.744,1.889-2.281,4.68-1.887,4.986c1.65,1.282,3.897,2.523,5.892,2.471
		c3.259-0.086,7.054-0.341,9.622-2.037c6.488-4.287,13.812-2.708,20.814-4.521c-2.203,6.458,0.056,9.242,7.441,8.771
		c10.963-0.702,20.064-5.209,25.463-15.161c5.382-9.923,5.35-20.078-0.267-30.036c-0.669-1.187-1.446-2.311-2.161-3.471
		c-0.072-0.119-0.052-0.297-0.119-0.738c7.57-3.14,15.214-6.31,22.856-9.48c-0.03-0.457-0.058-0.914-0.089-1.372
		c-4.667-0.707-9.334-1.415-15.021-2.277c10.021-9.265,19.492-18.02,28.965-26.776c-0.104-0.386-0.208-0.771-0.312-1.154
		c-5.606,0-11.212,0-17.858,0c3.851-8.393,7.232-15.767,11.188-24.389c-7.443,1.953-13.845,3.632-21.188,5.559
		c3.329-8.694,6.328-16.521,9.327-24.349c-0.286-0.252-0.572-0.504-0.857-0.758c-3.925,2.351-7.849,4.702-12.869,7.709
		c5.875-15.184,11.358-29.353,16.842-43.519c-0.331-0.313-0.66-0.628-0.99-0.943c-13.713,9.448-26.032,20.788-39.514,30.884
		c-0.575-2.44-1.041-4.428-1.51-6.416c-0.529-0.364-1.059-0.728-1.587-1.092c-2.287,3.358-4.572,6.715-6.857,10.073
		c-0.46-0.419-0.918-0.837-1.376-1.256c0.604-4.624,1.209-9.248,2.005-15.339c-7.46,5.743-13.861,10.674-20.903,16.097
		c-1.035-11.761-1.997-22.67-2.958-33.581c-0.403-0.131-0.81-0.262-1.214-0.392c-4.987,6.944-9.974,13.887-15.355,21.38
		C88.421,28.538,83.001,16.766,77.58,4.994c41.096,0,82.191,0,123.288,0c0,62.405,0,124.811,0,187.215c-66.666,0-133.333,0-200,0
		C0.867,187.338,0.867,182.468,0.867,177.597z"/>
	<path fill-rule="evenodd" clip-rule="evenodd" fill="none" d="M76.666,4.994c-1.024,13.132-2.048,26.264-3.143,40.311
		c-3.421-3.036-6.3-5.591-9.773-8.673c0,11.778,0,22.805,0,34.336c-3.229-2.223-6.287-4.328-9.344-6.434
		c-0.334,0.187-0.669,0.374-1.004,0.561c1.701,3.847,3.402,7.694,5.2,11.759c-0.938,0.277-1.629,0.629-2.336,0.667
		c-19.234,1.034-33.015,16.169-35.996,36.97c-0.749,5.227-0.726,10.607-0.579,15.903c0.123,4.469-0.774,8.232-3.723,11.771
		c-6.548,7.86-11.971,16.44-15.1,26.299c0-54.386,0-108.772,0-163.47C26.132,4.994,51.399,4.994,76.666,4.994z"/>
	<path fill-rule="evenodd" clip-rule="evenodd" fill="none" d="M136.375,182.473c-0.401-0.938-0.762-2.845-1.851-4.142
		c-6.941-8.274-7.2-16.707-0.775-25.579c-8.332,4.144-8.267,15.12,0.293,28.403c-16.949,2.31-33.039,1.142-49.701-6.413
		c9.253-2.135,16.516-5.407,20.568-13.119c-0.348-0.398-0.696-0.798-1.044-1.196c-0.956,1.249-1.793,2.615-2.889,3.726
		c-5.192,5.254-11.679,7.521-18.917,7.844c-4.946,0.222-7.171-2.274-5.05-6.803c2.006-4.282,5.284-8.021,8.3-11.756
		c1.389-1.72,3.49-2.86,5.558-4.491c-5.661,0.481-10.84,5.39-16.424,15.327c-2.949-3.683-5.816-7.265-8.834-11.033
		c4.423-1.882,8.667-3.688,12.911-5.494c-0.146-0.37-0.294-0.74-0.44-1.111c-13.534,5.736-28.839,6.231-41.451,14.755
		c-7.807,5.275-15.706,10.433-23.776,15.292c-2.105,1.268-5.483,2.308-7.395,1.462c-1.796-0.795-2.428-4.22-3.276-5.901
		c3.363-1.749,6.047-2.607,8.051-4.278c8.283-6.917,16.235-14.23,24.563-21.09c4.476-3.686,6.329-7.737,6.226-13.731
		c-0.101-5.923,0.85-12.239,2.978-17.749c4.717-12.208,17.683-18.148,30.334-14.916c11.559,2.952,19.987,15.034,18.545,27.478
		c-0.378,3.26-2.565,6.346-4.105,9.419c-0.689,1.376-1.833,2.524-2.561,3.903c11.922-7.344,23.375-5.273,34.124,1.854
		c6.91,4.581,13.755,5.65,21.63,3.651c3.593-0.911,7.706-1.505,11.218-0.682c10.172,2.385,16.232,8.016,13.852,21.557
		c-1.854,10.547-8.633,16.736-18.076,20.522c-0.848,0.34-2.219-0.148-3.163-0.619C142.874,186.105,140.041,184.473,136.375,182.473z
		 M49.815,138.526c1.306-4.309,2.331-8.729,3.996-12.894c1.764-4.412,4.874-7.874,9.995-8.22c5.043-0.339,7.547,3.132,9.418,7.212
		c0.099,0.215,0.466,0.307,1.109,0.703c-0.804-4.965-3.138-8.324-7.57-9.983c-4.5-1.685-8.13,0.326-10.95,3.535
		C50.886,124.491,49.32,131.343,49.815,138.526z"/>
	<path fill-rule="evenodd" clip-rule="evenodd" fill="none" d="M105.786,78.627c0.776-1.099,1.406-1.987,2.77-3.916
		c1.892,7.386,3.525,13.76,5.299,20.685c2.184-3.417,4.111-2.639,6.625,0.114c0-5.781,0-11.562,0-17.342
		c0.58-0.088,1.16-0.178,1.739-0.267c1.078,3.72,2.157,7.438,3.585,12.36c0.814-1.884,1.385-3.202,1.955-4.519
		c0.464,0.242,0.93,0.485,1.396,0.728c0.714,1.536,1.427,3.071,2.31,4.97c3.875-6.844,7.637-13.486,11.397-20.129
		c0.379,0.082,0.761,0.164,1.141,0.246c0.276,1.666,0.554,3.331,0.963,5.805c3.835-5.143,7.353-9.859,10.868-14.576
		c0.564,0.233,1.131,0.466,1.696,0.698c-1.871,6.775-3.742,13.55-5.611,20.325c0.281,0.232,0.564,0.465,0.847,0.697
		c1.647-2.217,3.295-4.435,4.941-6.652c0.607,0.393,1.214,0.788,1.82,1.181c-1.11,3.247-2.221,6.493-3.464,10.126
		c1.588-0.439,2.805-0.775,5.408-1.493c-2.511,5.209-4.554,9.443-6.594,13.679c0.171,0.175,0.341,0.351,0.512,0.525
		c2.791-2.092,5.581-4.186,8.372-6.278c0.425,0.281,0.85,0.562,1.274,0.841c-2.018,3.854-4.036,7.707-6.363,12.149
		c2.818-0.586,5.113-1.062,7.409-1.541c0.225,0.382,0.448,0.764,0.673,1.145c-3.153,3.334-6.308,6.668-10.123,10.701
		c3.51-0.562,6.076-0.974,8.644-1.384c0.21,0.341,0.422,0.683,0.633,1.024c-1.006,1.137-1.89,2.42-3.04,3.383
		c-3.614,3.023-7.295,5.974-11.018,8.864c-4.277,3.318-6.457,2.767-10.597-1.092c-2.191-2.044-5.322-3.084-8.072-4.6
		c1.032-1.999,1.979-3.831,2.925-5.663c-0.265-0.319-0.529-0.64-0.794-0.96c-3.643,2.235-7.284,4.47-11.28,6.923
		c-0.318-0.938-0.604-1.782-1.05-3.093c-2.042,1.071-3.993,2.095-5.201,2.729c-5.329-4.457-10.31-8.556-15.192-12.767
		c-0.869-0.751-1.621-1.879-1.947-2.975c-3.426-11.507-6.763-23.039-10.091-34.574c-0.195-0.675-0.109-1.432,0.699-2.752
		c2.083,2.182,4.167,4.365,6.722,7.041c0.473-7.317,0.919-14.21,1.365-21.102c0.613-0.082,1.227-0.165,1.842-0.246
		C102.695,64.557,104.213,71.47,105.786,78.627z"/>
	<path fill-rule="evenodd" clip-rule="evenodd" fill="none" d="M70.225,162.626c-5.658,4.779-11.821,8.103-19.218,8.583
		c-4.259,0.275-5.326-1.07-3.86-5.151c1.683-4.684,3.383-9.55,9.014-11.103c7.085-1.953,7.089-1.948,11.556,4.157
		C68.519,160.208,69.295,161.323,70.225,162.626z"/>
	<path fill-rule="evenodd" clip-rule="evenodd" fill="none" d="M144.45,190.174c-2.893-0.284-5.834-0.35-8.649-0.979
		c-0.953-0.212-1.586-1.855-2.365-2.843c1.134-0.477,2.426-1.561,3.368-1.312c2.796,0.732,5.454,1.99,8.165,3.042
		C144.796,188.778,144.624,189.477,144.45,190.174z"/>
	<path fill-rule="evenodd" clip-rule="evenodd" fill="none" d="M102.39,182.992c3.744,0.432,7.49,0.861,11.395,1.31
		C109.484,189.63,106.103,183.516,102.39,182.992z"/>
	<path fill-rule="evenodd" clip-rule="evenodd" fill="none" d="M106.442,186.241c-5.208,2.538-6.435,2.302-9.415-1.757
		C100.838,185.196,103.641,185.719,106.442,186.241z"/>
	<path fill-rule="evenodd" clip-rule="evenodd" d="M49.815,138.526c-0.496-7.184,1.07-14.035,5.999-19.646
		c2.819-3.209,6.45-5.22,10.95-3.535c4.432,1.659,6.766,5.019,7.57,9.983c-0.643-0.396-1.01-0.488-1.109-0.703
		c-1.871-4.08-4.375-7.551-9.418-7.212c-5.121,0.346-8.231,3.808-9.995,8.22C52.146,129.797,51.122,134.218,49.815,138.526z"/>
</g>
</svg>
