<?xml version="1.0" encoding="utf-8"?>
<!-- Generator: Adobe Illustrator 16.0.4, SVG Export Plug-In . SVG Version: 6.00 Build 0)  -->
<!DOCTYPE svg PUBLIC "-//W3C//DTD SVG 1.1//EN" "http://www.w3.org/Graphics/SVG/1.1/DTD/svg11.dtd">
<svg version="1.1" id="Layer_1" xmlns="http://www.w3.org/2000/svg" xmlns:xlink="http://www.w3.org/1999/xlink" x="0px" y="0px"
	 width="200px" height="200px" viewBox="0 0 200 200" enable-background="new 0 0 200 200" xml:space="preserve">
<g>
	<path fill="none" d="M114.35,0.953c23.179,0,46.356,0,69.535,0c0,66.678,0,133.356,0,200.035c-53.977,0-107.955,0-161.932,0
		c0-29.529,0-59.058,0-88.587c2.009,2.487,5.417,4.783,5.787,7.495c1.646,12.037,3.114,24.184,3.314,36.312
		c0.195,11.778,1.717,23.067,6.565,33.771c4.126,9.108,8.917,10.013,15.68,2.688c4.455-4.824,8.124-10.374,12.053-15.479
		c3.882,1.002,7.81,2.637,11.83,2.911c6.364,0.435,11.607,1.6,13.09,8.959c0.26,1.288,1.477,2.416,2.344,3.546
		c6.866,8.947,14.377,8.66,20.362-0.966c2.05-3.298,3.49-6.975,5.606-11.288c1.838,2.848,3.331,5.169,4.831,7.486
		c5.83,9.01,12.513,9.208,18.551,0.407c7.209-10.508,8.479-22.249,7.144-34.6c-0.282-2.616,0.505-5.427,1.179-8.05
		c1.217-4.733,3.152-9.317,3.988-14.104c0.919-5.264-0.546-6.711-5.808-6.604c-3.466,0.07-6.915,0.776-10.381,1.096
		c-1.159,0.106-2.85,0.374-3.444-0.247c-6.212-6.501-12.553-12.922-18.206-19.894c-2.764-3.408-4.007-7.711-0.377-12.098
		c2.165-2.618,2.16-6.011-1.908-7.138c-3.209-0.891-3.714-3.088-4.656-5.685c-3.279-9.039-5.984-18.458-10.598-26.799
		c-6.536-11.816-17.461-18.044-31.084-19.151c-1.637-0.133-3.263-0.413-5.08-0.649c3.459-6.553,8.577-7.508,14.705-2.854
		c18.862,14.326,39.123,25.573,62.352,31.499c16.612,4.238,29.194,14.218,35.95,30.595c0.806,1.952,2.235,3.646,3.376,5.458
		c0.526-0.021,1.053-0.042,1.58-0.062c0.72-2.767,1.847-5.502,2.068-8.309c0.387-4.892,0.366-9.833,0.253-14.747
		c-0.729-31.485-20.715-59.47-50.367-70.162C126.743,3.609,120.46,2.521,114.35,0.953z"/>
	<path fill-rule="evenodd" clip-rule="evenodd" d="M114.35,0.953c6.11,1.568,12.394,2.657,18.302,4.787
		c29.652,10.692,49.638,38.677,50.367,70.162c0.113,4.914,0.134,9.854-0.253,14.747c-0.222,2.807-1.349,5.542-2.068,8.309
		c-0.527,0.021-1.054,0.041-1.58,0.062c-1.141-1.813-2.57-3.507-3.376-5.458c-6.756-16.376-19.338-26.357-35.95-30.595
		c-23.229-5.926-43.49-17.173-62.352-31.499c-6.128-4.654-11.246-3.699-14.705,2.854c1.816,0.236,3.442,0.517,5.08,0.649
		c13.624,1.107,24.548,7.335,31.084,19.151c4.613,8.34,7.318,17.76,10.598,26.799c0.942,2.596,1.447,4.794,4.656,5.685
		c4.068,1.127,4.073,4.521,1.908,7.138c-3.63,4.387-2.387,8.69,0.377,12.098c5.653,6.972,11.994,13.393,18.206,19.894
		c0.595,0.621,2.285,0.354,3.444,0.247c3.466-0.319,6.915-1.025,10.381-1.096c5.262-0.107,6.727,1.34,5.808,6.604
		c-0.836,4.786-2.771,9.37-3.988,14.104c-0.674,2.623-1.461,5.434-1.179,8.05c1.336,12.351,0.065,24.092-7.144,34.6
		c-6.038,8.801-12.721,8.603-18.551-0.407c-1.5-2.317-2.993-4.639-4.831-7.486c-2.116,4.313-3.557,7.99-5.606,11.288
		c-5.984,9.626-13.496,9.913-20.362,0.966c-0.868-1.13-2.084-2.258-2.344-3.546c-1.482-7.359-6.726-8.524-13.09-8.959
		c-4.021-0.274-7.948-1.909-11.83-2.911c-3.929,5.104-7.598,10.654-12.053,15.479c-6.763,7.325-11.554,6.421-15.68-2.688
		c-4.849-10.704-6.371-21.993-6.565-33.771c-0.2-12.128-1.668-24.274-3.314-36.312c-0.371-2.712-3.778-5.008-5.787-7.495
		c0-0.636,0-1.27,0-1.905c0.962-2.053,2.864-4.183,2.704-6.144c-0.432-5.293-1.742-10.515-2.704-15.765c0-5.715,0-11.431,0-17.146
		c0.327-1.359,0.705-2.708,0.971-4.078c2.273-11.694,8.321-21.152,18.712-26.723c7.112-3.812,14.151-7.065,18.06-14.588
		c0.272-0.524,0.89-0.899,1.406-1.259c12.756-8.864,23.911-20.409,39.911-23.84C105.459,0.953,109.904,0.953,114.35,0.953z
		 M48.815,150.436c7.174,20.289,22.643,31.271,36.989,26.678c0-3.729,0-7.55,0-11.369c1.298,1.394,1.655,2.864,1.966,4.345
		c0.978,4.642,1.551,9.412,2.991,13.905c2.51,7.83,3.631,8.38,11.73,8.183c8.237-0.2,8.521-0.271,11.281-8.318
		c1.172-3.416,1.859-7.031,2.449-10.607c0.647-3.927,0.928-7.913,1.369-11.873c0.601,0.026,1.202,0.053,1.803,0.078
		c0,3.781,0.178,7.574-0.06,11.34c-0.175,2.784,0.938,4.69,2.174,7.141c3.105,6.152,6.675,8.808,13.978,7.999
		c3.254-0.36,4.706-1.086,6.072-3.457c8.438-14.647,6.575-38.732-4.504-51.608c-7.169-8.334-14.99-16.107-22.491-24.1
		c-2.705,5.329-5.316,7.214-8.759,5.233c-1.775-1.021-3.461-3.79-3.535-5.83c-0.14-3.822,3.366-5.416,10.021-5.254
		c-1.936-8.504-3.136-17.224-5.986-25.365c-3.108-8.875-6.794-17.845-11.95-25.634C87.39,41.4,76.63,36.65,63.708,37.21
		c0.449,4.73-1.173,9.53-4.916,9.882c-2.426,0.229-5.345-4.766-8.677-8.045C40.753,41.826,33.24,48.63,28.718,58.72
		c-4.845,10.812-5.245,22.392-3.317,33.654c4.035,23.578,9.49,46.863,8.542,71.113c-0.36,9.21,1.973,18.49,6.457,26.751
		c2.139-0.221,4.195-1.094,5.535-0.459c6.489,3.076,8.752-1.629,11.332-5.764c1.659-2.658,3.084-5.462,4.559-8.101
		C49.725,163.658,47.613,159.689,48.815,150.436z M178.986,92.874c0.518-0.007,1.035-0.016,1.553-0.023
		c0-4.195,1.229-8.894-0.242-12.486c-3.698-9.031-8.42-17.669-13.086-26.274c-10.242-18.889-26.514-29.789-47.386-33.086
		c-15.873-2.509-31.908-2.113-47.503,2.874c-0.716,0.229-1.62-0.129-2.437-0.213c-0.037-0.45-0.074-0.899-0.111-1.348
		c15.985-6.554,32.62-10.77,49.951-6.866c32.424,7.303,52.563,27.737,60.661,60.133c0.011-2.255-0.364-4.27-0.569-6.301
		c-2.995-29.665-24.247-55.172-52.956-63.026c-14.969-4.096-29.78-4.959-43.266,4.905c-6.529,4.776-13.056,9.553-19.584,14.327
		c-4.351,3.183-7.979,6.99-8.6,12.569c-0.23,2.075,0.81,4.293,1.27,6.445c0.471-0.107,0.943-0.214,1.414-0.32
		c0.084-1.88,0.085-3.768,0.266-5.638c0.945-9.796,11.19-15.825,19.479-11.221c24.569,13.646,49.487,26.521,75.853,36.435
		c11.026,4.147,18.26,12.292,22.7,23.061C177.229,88.85,178.12,90.856,178.986,92.874z M147.739,144.642
		c0.773-1.714,1.756-3.183,2.096-4.789c0.854-4.029,1.418-8.121,2.097-12.188c-4.425,0.38-8.851,0.757-13.275,1.149
		c-0.113,0.01-0.211,0.183-0.404,0.362C141.324,134.183,144.398,139.195,147.739,144.642z M110.242,106.855
		c-0.297-0.472-0.592-0.943-0.889-1.415c-3.074-0.641-5.074,0.127-4.913,5.338C106.879,109.13,108.561,107.993,110.242,106.855z
		 M41.569,191.851c3.414,4.512,4.604,4.532,7.984,0.407C46.837,192.119,44.532,192.002,41.569,191.851z"/>
	<path fill-rule="evenodd" clip-rule="evenodd" fill="none" d="M101.014,0.953c-16,3.432-27.155,14.977-39.911,23.84
		c-0.517,0.359-1.134,0.735-1.406,1.259c-3.909,7.523-10.948,10.776-18.06,14.588c-10.391,5.57-16.439,15.029-18.712,26.723
		c-0.267,1.37-0.645,2.719-0.971,4.078c0-23.421,0-46.843,0-70.488C48.306,0.953,74.66,0.953,101.014,0.953z"/>
	<path fill-rule="evenodd" clip-rule="evenodd" fill="none" d="M21.953,88.587c0.962,5.25,2.272,10.471,2.704,15.765
		c0.16,1.961-1.742,4.091-2.704,6.144C21.953,103.192,21.953,95.89,21.953,88.587z"/>
	<path fill-rule="evenodd" clip-rule="evenodd" fill="none" d="M48.815,150.436c-1.203,9.254,0.91,13.223,13.009,25.479
		c-1.475,2.639-2.9,5.442-4.559,8.101c-2.579,4.135-4.843,8.84-11.332,5.764c-1.34-0.635-3.396,0.238-5.535,0.459
		c-4.484-8.261-6.817-17.541-6.457-26.751c0.948-24.25-4.507-47.535-8.542-71.113c-1.928-11.262-1.528-22.842,3.317-33.654
		c4.521-10.09,12.035-16.894,21.397-19.673c3.333,3.279,6.251,8.274,8.677,8.045c3.742-0.353,5.365-5.152,4.916-9.882
		C76.63,36.65,87.39,41.4,94.354,51.921c5.156,7.789,8.842,16.759,11.95,25.634c2.851,8.141,4.051,16.86,5.986,25.365
		c-6.655-0.162-10.161,1.432-10.021,5.254c0.074,2.04,1.76,4.81,3.535,5.83c3.442,1.98,6.054,0.096,8.759-5.233
		c7.501,7.992,15.322,15.766,22.491,24.1c11.079,12.876,12.941,36.961,4.504,51.608c-1.366,2.371-2.818,3.097-6.072,3.457
		c-7.303,0.809-10.872-1.847-13.978-7.999c-1.236-2.45-2.349-4.356-2.174-7.141c0.237-3.766,0.06-7.559,0.06-11.34
		c-0.601-0.025-1.202-0.052-1.803-0.078c-0.441,3.96-0.722,7.946-1.369,11.873c-0.59,3.576-1.277,7.191-2.449,10.607
		c-2.761,8.048-3.044,8.118-11.281,8.318c-8.099,0.197-9.22-0.353-11.73-8.183c-1.44-4.493-2.013-9.264-2.991-13.905
		c-0.312-1.48-0.668-2.951-1.966-4.345c0,3.819,0,7.64,0,11.369C71.458,181.707,55.99,170.725,48.815,150.436z M79.083,53.711
		c2.132,0.71,4.835,0.825,6.3,2.23c7.392,7.1,8.094,16.54,8.364,26.062c2.407-9.403,1.029-18.153-5.173-25.676
		c-5.237-6.353-13.336-4.857-16.001,2.974c-2.819,8.284-2.072,16.63,1.966,24.382c0.913,1.753,3.504,3.461,5.471,3.65
		c3.32,0.32,6.758-0.59,10.146-0.983c-0.026-0.349-0.052-0.698-0.078-1.047c-1.043,0-2.087,0-2.946,0
		C88.158,73.855,89.63,62.722,79.083,53.711z M37.888,60.585c-6.149,10.051-4.322,19.788-0.432,29.546
		c-0.759,0.283-1.517,0.565-2.275,0.848c2.599,0.625,5.178,0.903,7.502,0.261c1.552-0.43,3.647-1.976,3.945-3.357
		c1.976-9.147,0.745-18.033-4.208-26.012c-2.639-4.251-7.752-3.934-10.743,0.07c-4.532,6.063-4.364,20.437,0.659,27.337
		c-0.407-2.195-0.975-3.872-0.983-5.551c-0.026-5.649-0.189-11.333,0.38-16.936C32.036,63.799,33.553,60.761,37.888,60.585z
		 M49.928,92.428c1.799,3.203,3.225,6.936,5.701,9.743c1.735,1.967,5.156,4.003,7.363,3.584c2.481-0.473,5.132-3.301,6.459-5.775
		c1.646-3.072,2.011-6.83,2.769-9.687C65.046,90.98,57.471,91.706,49.928,92.428z M66.594,121.892
		c-3.895-0.023-7.365,3.064-7.018,6.088c0.45,3.931,3.569,5.062,6.805,5.175c3.567,0.125,5.575-2.245,5.496-5.684
		C71.796,124.011,69.53,122.188,66.594,121.892z M88.775,126.622c4.787-0.085,7.88-2.845,7.695-6.062
		c-0.215-3.729-2.722-4.427-5.935-4.459c-3.83-0.039-6.166,1.536-6.14,5.434C84.417,124.92,86.495,126.624,88.775,126.622z
		 M48.604,123.803c0.004-3.762-2.902-6.492-6.653-6.196c-3.04,0.24-6.239,0.872-6.774,4.65c-0.404,2.854,4.528,7.325,7.779,7.125
		C46.509,129.161,48.232,126.895,48.604,123.803z"/>
	<path fill-rule="evenodd" clip-rule="evenodd" fill="none" d="M178.986,92.874c-0.866-2.018-1.758-4.024-2.594-6.054
		c-4.44-10.77-11.674-18.914-22.7-23.061c-26.366-9.915-51.284-22.789-75.853-36.435c-8.288-4.604-18.534,1.425-19.479,11.221
		c-0.18,1.871-0.182,3.758-0.266,5.638c-0.471,0.106-0.943,0.213-1.414,0.32c-0.46-2.152-1.5-4.37-1.27-6.445
		c0.621-5.58,4.249-9.387,8.6-12.569c6.529-4.774,13.056-9.551,19.584-14.327c13.486-9.864,28.297-9,43.266-4.905
		c28.709,7.854,49.961,33.361,52.956,63.026c0.205,2.032,0.58,4.046,0.569,6.301c-8.098-32.396-28.237-52.83-60.661-60.133
		c-17.331-3.904-33.966,0.312-49.951,6.866c0.037,0.449,0.074,0.898,0.111,1.348c0.816,0.083,1.72,0.441,2.437,0.213
		c15.595-4.987,31.63-5.382,47.503-2.874c20.872,3.297,37.144,14.197,47.386,33.086c4.666,8.604,9.388,17.243,13.086,26.274
		c1.471,3.593,0.242,8.291,0.242,12.486C180.021,92.858,179.504,92.867,178.986,92.874z"/>
	<path fill-rule="evenodd" clip-rule="evenodd" fill="none" d="M147.739,144.642c-3.341-5.446-6.415-10.459-9.487-15.466
		c0.193-0.18,0.291-0.353,0.404-0.362c4.425-0.393,8.851-0.77,13.275-1.149c-0.679,4.067-1.242,8.159-2.097,12.188
		C149.495,141.459,148.513,142.928,147.739,144.642z"/>
	<path fill-rule="evenodd" clip-rule="evenodd" fill="none" d="M110.242,106.855c-1.682,1.138-3.363,2.274-5.802,3.923
		c-0.161-5.211,1.839-5.979,4.913-5.338C109.65,105.912,109.945,106.384,110.242,106.855z"/>
	<path fill-rule="evenodd" clip-rule="evenodd" fill="none" d="M41.569,191.851c2.963,0.151,5.268,0.269,7.984,0.407
		C46.173,196.383,44.983,196.362,41.569,191.851z"/>
	<path fill-rule="evenodd" clip-rule="evenodd" d="M79.083,53.711c10.547,9.011,9.075,20.145,8.047,31.593c0.859,0,1.903,0,2.946,0
		c0.026,0.349,0.052,0.698,0.078,1.047c-3.388,0.393-6.826,1.303-10.146,0.983c-1.967-0.188-4.558-1.896-5.471-3.65
		c-4.038-7.752-4.785-16.099-1.966-24.382c2.665-7.831,10.764-9.326,16.001-2.974c6.202,7.522,7.58,16.272,5.173,25.676
		c-0.27-9.522-0.972-18.962-8.364-26.062C83.918,54.536,81.214,54.421,79.083,53.711z M85.899,76.524
		c-0.339-0.003-0.678-0.006-1.018-0.009c-1.342,1.712-2.685,3.424-4.027,5.137c-1.621-1.372-3.243-2.744-4.864-4.115
		c-0.385,0.138-0.77,0.275-1.155,0.413c1.163,2.44,1.875,5.329,3.672,7.138c0.963,0.968,5.142,0.725,5.537-0.095
		C85.265,82.46,85.364,79.388,85.899,76.524z M79.565,70.422c2.249-3.624,2.15-9.131-0.329-10.79
		c-0.629-0.42-2.233-0.324-2.745,0.185c-2.065,2.052-0.728,7.958,2.209,10.509C78.795,70.408,78.999,70.366,79.565,70.422z"/>
	<path fill-rule="evenodd" clip-rule="evenodd" d="M37.888,60.585c-4.334,0.176-5.852,3.214-6.155,6.207
		c-0.569,5.602-0.406,11.287-0.38,16.936c0.008,1.679,0.576,3.355,0.983,5.551c-5.022-6.9-5.19-21.274-0.659-27.337
		c2.991-4.003,8.104-4.321,10.743-0.07c4.953,7.979,6.183,16.864,4.208,26.012c-0.298,1.381-2.393,2.928-3.945,3.357
		c-2.324,0.643-4.903,0.365-7.502-0.261c0.758-0.283,1.516-0.565,2.273-0.853C33.566,80.373,31.738,70.636,37.888,60.585z
		 M39.604,64.464c-3.055,3.931-2.77,7.052,0.944,10.282C43.595,70.898,43.298,67.661,39.604,64.464z M37.74,82.915
		c0.189,2.76-0.463,6.683,3.568,6.615c5.239-0.088,3.256-4.405,3.508-7.922C41.725,86.851,41.305,86.893,37.74,82.915z"/>
	<path fill-rule="evenodd" clip-rule="evenodd" d="M49.928,92.428c7.543-0.722,15.119-1.448,22.292-2.134
		c-0.758,2.857-1.123,6.615-2.769,9.687c-1.327,2.474-3.978,5.302-6.459,5.775c-2.207,0.419-5.628-1.617-7.363-3.584
		C53.152,99.363,51.727,95.63,49.928,92.428z M67.667,101.23c-0.214-0.729-0.428-1.457-0.641-2.186
		c-3.177,0.165-6.355,0.33-9.532,0.494c-0.141,0.695-0.281,1.391-0.421,2.087c1.736,0.96,3.524,2.759,5.196,2.656
		C64.123,104.17,65.872,102.322,67.667,101.23z"/>
	<path fill-rule="evenodd" clip-rule="evenodd" d="M66.594,121.892c2.937,0.296,5.202,2.119,5.282,5.579
		c0.079,3.438-1.928,5.809-5.496,5.684c-3.236-0.112-6.354-1.244-6.805-5.175C59.229,124.956,62.699,121.868,66.594,121.892z"/>
	<path fill-rule="evenodd" clip-rule="evenodd" d="M88.775,126.622c-2.28,0.002-4.358-1.702-4.38-5.087
		c-0.025-3.897,2.31-5.473,6.14-5.434c3.213,0.032,5.72,0.729,5.935,4.459C96.655,123.777,93.562,126.537,88.775,126.622z"/>
	<path fill-rule="evenodd" clip-rule="evenodd" d="M48.604,123.803c-0.372,3.092-2.095,5.358-5.648,5.579
		c-3.251,0.2-8.183-4.271-7.779-7.125c0.535-3.778,3.734-4.41,6.774-4.65C45.702,117.311,48.608,120.041,48.604,123.803z
		 M38.017,120.52c-0.017,0.672-0.033,1.345-0.049,2.018c1.9,2.319,4.178,2.935,6.632,0.815c0.511-0.439,0.173-1.863,0.227-2.833
		C42.557,120.52,40.287,120.52,38.017,120.52z"/>
	<path fill-rule="evenodd" clip-rule="evenodd" fill="none" d="M85.899,76.524c-0.535,2.863-0.634,5.936-1.855,8.468
		c-0.395,0.82-4.574,1.063-5.537,0.095c-1.798-1.809-2.509-4.698-3.672-7.138c0.385-0.138,0.771-0.275,1.155-0.413
		c1.622,1.371,3.243,2.743,4.864,4.115c1.342-1.712,2.685-3.424,4.027-5.137C85.221,76.518,85.56,76.521,85.899,76.524z"/>
	<path fill-rule="evenodd" clip-rule="evenodd" fill="none" d="M79.565,70.422c-0.567-0.057-0.77-0.014-0.864-0.096
		c-2.938-2.551-4.274-8.457-2.209-10.509c0.512-0.509,2.116-0.605,2.745-0.185C81.716,61.291,81.814,66.798,79.565,70.422z"/>
	<path fill-rule="evenodd" clip-rule="evenodd" fill="none" d="M39.604,64.464c3.694,3.197,3.991,6.434,0.944,10.282
		C36.834,71.516,36.549,68.396,39.604,64.464z"/>
	<path fill-rule="evenodd" clip-rule="evenodd" fill="none" d="M37.74,82.915c3.565,3.978,3.985,3.936,7.077-1.308
		c-0.252,3.517,1.731,7.834-3.508,7.922C37.276,89.598,37.929,85.675,37.74,82.915z"/>
	<path fill-rule="evenodd" clip-rule="evenodd" fill="none" d="M67.667,101.23c-1.795,1.092-3.544,2.939-5.398,3.052
		c-1.672,0.103-3.459-1.696-5.196-2.656c0.14-0.696,0.28-1.392,0.421-2.087c3.177-0.165,6.354-0.329,9.532-0.494
		C67.239,99.773,67.453,100.502,67.667,101.23z"/>
	<path fill-rule="evenodd" clip-rule="evenodd" fill="none" d="M38.017,120.52c2.27,0,4.54,0,6.81,0
		c-0.054,0.97,0.284,2.394-0.227,2.833c-2.455,2.119-4.732,1.504-6.632-0.815C37.984,121.864,38,121.191,38.017,120.52z"/>
</g>
</svg>
