<?xml version="1.0" encoding="utf-8"?>
<!-- Generator: Adobe Illustrator 16.0.4, SVG Export Plug-In . SVG Version: 6.00 Build 0)  -->
<!DOCTYPE svg PUBLIC "-//W3C//DTD SVG 1.1//EN" "http://www.w3.org/Graphics/SVG/1.1/DTD/svg11.dtd">
<svg version="1.1" id="Layer_1" xmlns="http://www.w3.org/2000/svg" xmlns:xlink="http://www.w3.org/1999/xlink" x="0px" y="0px"
	 width="200px" height="200px" viewBox="0 0 200 200" enable-background="new 0 0 200 200" xml:space="preserve">
<g>
	<path fill="none" d="M94.812,1.021c32.974,0,65.948,0,98.995,0c0,66.726,0,133.452,0.001,200.178c-15.635,0-31.271,0-46.909,0
		c5.035-0.709,10.17-1.029,15.067-2.28c2.779-0.71,6.152-2.357,7.506-4.628c2.074-3.479,0.326-6.975-2.721-9.925
		c-3.557-3.444-6.607-7.41-10.264-11.592c2.068-0.633,3.235-0.858,4.29-1.335c9.074-4.104,18.465-7.667,27.075-12.592
		c6.034-3.452,5.32-6.645-0.862-9.582c-0.613-0.291-1.22-0.643-1.87-0.806c-3.369-0.844-3.929-3.042-3.387-6.157
		c0.699-4.013,1.3-8.07,1.511-12.131c0.256-4.932,0.061-9.886,0.061-15.978c-9.076,6.134-13.838,14.435-19.755,22.124
		c-9.27-6.473-16.214-14.56-21.61-25.288c2.952,0.174,5.343-0.42,6.512,0.515c4.122,3.297,7.398,4.968,9.49-1.789
		c0.185-0.596,1.358-1.188,2.118-1.252c5.53-0.465,1.868-7.111,7.333-8.493c-2.021-1.11-3.03-1.665-3.931-2.16
		c1.151-1.479,1.936-2.487,2.839-3.648c-1.533-0.934-2.753-1.675-3.824-2.328c0.777-1.819,1.401-3.277,2.113-4.944
		c-5.798-1.03-11.071-1.968-17.186-3.054c5.503-6.065,10.08-11.11,15.391-16.963c-8.739-1.816-16.113-3.35-24.071-5.005
		c3.548-4.217,6.76-8.036,10.571-12.567c-5.679-1.979-10.33-4.278-15.235-5.159c-8.476-1.522-12.485-6.115-15.018-14.372
		C115.155,17.139,108.768,5.65,94.812,1.021z"/>
	<path fill-rule="evenodd" clip-rule="evenodd" fill="none" d="M128.516,201.199c-39.757,0-79.514,0-119.494,0
		c0-51.066,0-102.132,0-153.197c5.859,5.965,11.718,11.932,18.215,18.547c0.615-2.189,0.724-3.194,1.167-4.02
		c0.786-1.465,1.498-3.407,2.779-4.015c0.82-0.388,2.709,1.121,3.932,2.031c1.474,1.096,2.75,2.458,4.112,3.705l0.001-0.016
		c0.793-1.176,1.988-2.258,2.288-3.548c0.478-2.055,0.36-4.248,0.52-6.786c5.784,0.844,10.918,1.593,16.019,2.337
		c-0.679,7.471-3.658,11.757-7.218,12.625c-0.807,3.34-0.717,6.486-2.201,8.431c-3.932,5.154-7.207-0.441-9.56-1.186
		c-2.939,1.729-5.001,2.941-6.712,3.948c-1.172,2.414-2.309,4.753-3.708,7.633c3.878,1.48,0.108,3.799-0.46,6.089
		c0.448-0.074,0.896-0.146,1.344-0.22c0.625,2.389,1.252,4.777,1.504,5.74c10.984,4.627,21.436,9.029,31.835,13.41
		c-2.047,6.641-3.337,13.345-9.04,17.986c-1.453,1.182-2.227,3.403-2.91,5.292c-4.585,12.662-1.491,23.325,9.324,32.473
		c-6.78,2.218-12.975,4.447-19.296,6.229c-3.53,0.996-5.178,2.708-4.841,6.457c0.335,3.733,0.68,7.183,5.503,7.709
		c7.757,0.847,15.486,2.294,23.257,2.542c4.183,0.134,8.866-0.871,12.548-2.824c6.657-3.528,12.725-8.166,19.067-12.297
		c0.516-0.335,1.263-0.524,1.876-0.471c8.905,0.782,17.806,1.617,26.934,2.46c-0.269,3.577-0.905,7.286-0.729,10.956
		C124.775,193.48,124.253,198.191,128.516,201.199z"/>
	<path fill-rule="evenodd" clip-rule="evenodd" d="M39.226,64.25c-1.362-1.247-2.638-2.609-4.112-3.705
		c-1.223-0.91-3.112-2.419-3.932-2.031c-1.281,0.607-1.993,2.549-2.779,4.015c-0.443,0.826-0.552,1.831-1.167,4.02
		C20.739,59.934,14.88,53.967,9.021,48.002c0-2.383,0-4.767,0-7.149c1.735-3.458,3.119-7.156,5.285-10.32
		c3.759-5.493,7.226-6.364,13.621-4.292c9.209,2.983,16.014,0.709,21.703-7.255c2.562-3.588,4.938-7.326,7.726-10.727
		c3.613-4.408,8.901-7.1,13.986-4.816c6.215,2.79,10.503,0.155,15.299-2.421c2.724,0,5.447,0,8.17,0
		c13.956,4.629,20.344,16.118,24.23,28.789c2.532,8.257,6.542,12.85,15.018,14.372c4.905,0.881,9.557,3.18,15.235,5.159
		c-3.812,4.531-7.023,8.35-10.571,12.567c7.958,1.655,15.332,3.188,24.071,5.005c-5.311,5.854-9.888,10.898-15.391,16.963
		c6.114,1.086,11.388,2.024,17.186,3.054c-0.712,1.667-1.336,3.125-2.113,4.944c1.071,0.652,2.291,1.394,3.824,2.328
		c-0.903,1.161-1.688,2.169-2.839,3.648c0.9,0.495,1.91,1.05,3.931,2.16c-5.465,1.382-1.803,8.028-7.333,8.493
		c-0.76,0.063-1.934,0.656-2.118,1.252c-2.092,6.757-5.368,5.086-9.49,1.789c-1.169-0.935-3.56-0.341-6.512-0.515
		c5.396,10.729,12.341,18.815,21.61,25.288c5.917-7.689,10.679-15.99,19.755-22.124c0,6.092,0.195,11.046-0.061,15.978
		c-0.211,4.061-0.812,8.118-1.511,12.131c-0.542,3.115,0.018,5.313,3.387,6.157c0.65,0.163,1.257,0.515,1.87,0.806
		c6.183,2.938,6.896,6.13,0.862,9.582c-8.61,4.925-18.001,8.487-27.075,12.592c-1.055,0.477-2.222,0.702-4.29,1.335
		c3.656,4.182,6.707,8.147,10.264,11.592c3.047,2.95,4.795,6.446,2.721,9.925c-1.354,2.271-4.727,3.918-7.506,4.628
		c-4.897,1.251-10.032,1.571-15.067,2.28c-6.128,0-12.256,0-18.383,0c-4.263-3.008-3.74-7.719-3.944-11.979
		c-0.176-3.67,0.461-7.379,0.729-10.956c-9.128-0.843-18.028-1.678-26.934-2.46c-0.613-0.054-1.36,0.136-1.876,0.471
		c-6.342,4.131-12.41,8.769-19.067,12.297c-3.683,1.953-8.366,2.958-12.548,2.824c-7.771-0.248-15.5-1.695-23.257-2.542
		c-4.823-0.526-5.168-3.976-5.503-7.709c-0.336-3.749,1.312-5.461,4.841-6.457c6.321-1.782,12.517-4.012,19.296-6.229
		c-10.815-9.147-13.91-19.811-9.324-32.473c0.684-1.889,1.458-4.11,2.91-5.292c5.703-4.642,6.993-11.346,9.04-17.986
		c-10.399-4.381-20.851-8.783-31.835-13.41c-0.252-0.962-0.879-3.351-1.504-5.74c-0.448,0.074-0.896,0.146-1.344,0.22
		c0.569-2.29,4.338-4.609,0.46-6.089c1.399-2.879,2.536-5.219,3.708-7.633c1.711-1.006,3.773-2.219,6.712-3.948
		c2.353,0.745,5.628,6.34,9.56,1.186c1.484-1.945,1.394-5.091,2.201-8.431c3.561-0.869,6.54-5.154,7.218-12.625
		c-5.1-0.744-10.234-1.493-16.019-2.337c-0.16,2.538-0.042,4.731-0.52,6.786c-0.3,1.29-1.495,2.372-2.297,3.524
		c0.383-2.96,0.774-5.896,1.337-10.111c-2.799,1.448-4.125,2.135-5.503,2.847C36.628,59.703,37.927,61.977,39.226,64.25z
		 M42.545,92.787c-0.706-0.89-1.41-1.778-2.644-3.334c2.569,0,4,0,5.501,0c0.462-2.464,0.891-4.744,1.303-6.939
		c-2.832-1.385-5.36-2.623-7.218-3.533c-2.112,1.076-3.693,1.881-4.875,2.483c-1.064,2.102-2.084,4.115-2.973,5.871
		c0,1.935,0,3.924,0,6.529c0.487,1.101,1.333,3.011,2.295,5.182c3.495,0.789,7.51,1.696,12.927,2.918
		c-1.829-3.807-3.153-6.562-4.465-9.308c2.557,2.562,5.113,5.122,7.668,7.683c-0.342,3.059,0.576,4.527,4.135,6.62
		c10.584,6.225,24.856,3.31,30.777-7.427c3.875-7.024,5.74-15.15,8.591-22.75c0.912-2.43,2.097-4.758,3.158-7.131
		c0.393,0.193,0.786,0.387,1.179,0.581c-0.535,1.628-1.071,3.258-1.699,5.169c1.253-0.282,1.911-0.43,2.019-0.454
		c-2.105,4.947-4.208,9.885-6.694,15.727c13.207-4.55,22.123-16.209,37.594-12.792c-4.008-15.929-7.231-31.038-11.759-45.746
		c-2.2-7.146-6.031-14.15-10.55-20.143C98.254,0.632,85.287,0.55,75.818,11.17c-3.604,4.042-6.613,8.637-9.709,13.107
		c-2.887,4.167-6.748,6.474-11.682,7.464c-7.542,1.515-15.029,3.3-22.676,5c1.378-0.96,2.699-2.412,4.313-2.904
		c4.367-1.335,8.81-2.872,13.311-3.235c11.352-0.914,16.259-8.812,20.306-17.98c-2.094,1.516-4.188,3.032-7.05,5.106
		c2.201-6.728,8.464-6.983,12.791-10.013c-9.795-5.434-18.067-0.336-24.533,14.492c2.215-0.668,4.29-1.294,6.365-1.92
		c0.114,0.478,0.228,0.956,0.342,1.433c-9.872,4.152-19.062,10.778-31.084,6.465c-2.301-0.825-6.06-0.28-8.041,1.157
		c-8.586,6.229-8.607,17.754-1.002,24.874c4.66,4.363,9.356,4.558,14.341,1.622c6.527-3.843,13.186-4.633,20.507-2.852
		c10.412,2.532,20.944,1.322,31.416,0.134c5.125-0.581,10.214-1.466,15.321-2.213c-7.876,2.67-8.882,9.895-11.203,16.073
		c-1.311,3.49-2.049,7.194-3.314,10.705c-2.47,6.855-4.459,14-7.855,20.382c-6.319,11.875-18.238,12.557-26.784,2.102
		c0.975-0.871,2.801-1.762,2.781-2.609c-0.096-4.013-3.522-4.95-6.556-5.805C45.106,91.47,43.747,92.408,42.545,92.787z
		 M161.009,197.351c1.583-0.847,5.245-1.625,6.643-3.835c1.983-3.137-1.063-5.758-3.315-8.21
		c-4.244-4.619-8.197-9.505-12.402-14.434c-1.093,0.43-2.344,0.922-3.595,1.415c8.017-9.756,8.971-20.629,6.301-32.036
		c-2.729-11.661-10.746-18.865-22.145-22.875c0.367-0.483,0.735-0.967,1.104-1.451c3.443,1.37,6.886,2.74,10.329,4.11
		c-1.735-3.37-3.725-8.003-6.457-8.493c-14.408-2.591-28.704-2.808-40.864,7.672c-5.398,4.651-11.233,8.807-16.507,13.587
		c-2.543,2.304-4.714,2.812-7.007,0.512c-3.606-3.618-6.918-7.531-10.504-11.484c-2.477,11.369-2.743,22.497,3.875,33.075
		c9.598,15.343,35.741,21.901,53.621,19.131c-13.012-6.605-19.419-16.715-17.64-31.139c1.367-11.073,4.657-16.913,10.349-18.865
		c-7.629,10.034-10.545,20.948-6.01,32.659c4.531,11.7,15.052,16.233,26.166,19.889c-1.633,0-3.266,0-5.622,0
		c0,4.182-0.03,8.065,0.006,11.949c0.094,10.161,1.431,11.337,11.631,10.286c0.308-0.032,0.592-0.283,1.23-0.605
		c0-2.143,0.292-4.503-0.082-6.752c-0.381-2.298-1.415-4.487-2.164-6.724c0.645-0.194,1.29-0.389,1.934-0.583
		c1.486,4.77,2.973,9.539,4.646,14.908c3.281-0.395,7.224-0.87,12.887-1.552c-2.408-5.47-4.353-9.885-6.296-14.302
		c0.42-0.21,0.841-0.421,1.261-0.631C154.965,187,157.552,191.429,161.009,197.351z M162.102,89.17
		c-7.471-2.037-14.08-4.079-20.807-5.606c-6.922-1.572-13.92-3.363-20.955-3.733c-7.291-0.383-12.864,6.647-13.102,14.805
		c-0.211,7.219,3.384,11.222,11.423,12.24c5.218,0.659,10.532,0.619,15.724,1.408c6.629,1.008,14.033-1.597,19.154,3.968
		c2.633-2.51,4.983-4.752,7.577-7.225c-0.94-0.806-2.011-1.722-3.054-2.614c1.765-0.64,3.395-1.23,5.728-2.076
		c-2.311-1.457-3.677-2.318-5.298-3.342c1.948-0.566,3.475-1.009,6.43-1.868c-3.019-1.285-4.512-1.921-5.892-2.508
		C160.092,91.427,161.18,90.206,162.102,89.17z M93.538,175.954c-23.487-6.76-36.897-20.803-35.443-47.265
		c-5.549,6.352-7.413,12.4-6.83,19.054c1.094,12.482,8.797,19.573,20.279,23.598c-2.282,0.181-4.171-0.281-6.083-0.605
		c-1.6-0.271-3.405-0.927-4.812-0.469c-6.452,2.101-12.775,4.595-19.188,6.821c-3.547,1.231-3.497,4.143-2.578,6.588
		c0.571,1.521,2.905,2.378,5.024,3.964c1.08-9.245,5.734-12.672,14.905-12.474c-3.86,3.848-14.242,1.51-11.269,12.287
		c2.798-0.731,6.774,3.239,8.27-2.049c1.623-5.74,5.214-8.581,12.099-8.07c-2.28,1.013-4.662,1.373-5.818,2.757
		c-1.523,1.823-2.083,4.45-3.058,6.732c1.537,0.642,3.02,1.604,4.619,1.877C76.164,190.829,83.48,180.638,93.538,175.954z
		 M76.772,66.723c-0.009-0.493-0.018-0.984-0.027-1.477c6.494-0.193,11.678-1.792,11.402-9.408
		c-5.712,0.262-11.273,0.445-16.82,0.84c-1.051,0.075-2.288,0.772-3.021,1.567c-8.967,9.728-14.456,21.006-13.893,34.467
		c0.14,3.354,1.639,6.978,3.488,9.849c2.172,3.371,6.996,2.964,10.958,0.206c3.731-2.597,1.396-4.762-0.023-7.237
		c-1.178-2.055-2.036-4.294-3.035-6.452c0.341-0.345,0.682-0.689,1.023-1.033c3.303,0.979,6.605,1.957,9.38,2.779
		c7.397-6.454-0.433-9.966-3.163-15.166c2.487-0.139,4.124-0.08,5.699-0.363c1.35-0.243,2.631-0.877,3.942-1.339
		c-0.657-1.181-1.154-2.498-2.011-3.51C79.52,69.082,78.086,67.952,76.772,66.723z M110.794,107.736
		c-7.575-5.766-6.586-13.788-3.699-22.965c-8.532,5.397-16.92,8.831-21.004,17.865c-1.298,2.871-4.672,4.772-6.972,7.232
		c-1.056,1.129-2.562,2.529-2.575,3.819c-0.055,5.472,0.374,10.947,0.607,16.004C88.639,122.194,99.637,115.018,110.794,107.736z
		 M155.437,134.217c3.757,10.709,5.227,21.828-0.738,32.922c-1.271,2.361,0.577,3.506,2.951,2.535
		c8.749-3.575,17.523-7.108,26.128-11.01c2.084-0.945,3.555-3.242,5.323-4.933C177.338,146.914,166.307,140.519,155.437,134.217z
		 M157.984,69.176c-0.231-0.487-0.463-0.975-0.694-1.461c-7.303-1.108-14.604-2.216-22.944-3.482
		c-1.019-2.187,2.048-3.935,3.978-6.104c2.102-2.361,4.286-4.648,7.084-7.668c-7.308-2.308-13.753-4.345-20.956-6.62
		c2.251,10.821,4.287,20.571,6.305,30.323c1.002,4.842,11.782,9.39,15.628,6.229C150.526,76.991,154.141,72.943,157.984,69.176z
		 M165.711,137.788c4.629,2.539,8.499,4.662,13.226,7.256c1.083-9.314,2.021-17.378,2.957-25.441
		c-0.554-0.214-1.106-0.428-1.661-0.642C175.555,125.026,170.876,131.092,165.711,137.788z M72.403,130.702
		c0.51-0.229,1.02-0.458,1.53-0.687c0-5.819,0-11.638,0-17.491c-1.645,0-2.827-0.053-4.001,0.01
		c-5.493,0.293-6.602,1.357-4.588,6.372C67.029,123.106,70.001,126.791,72.403,130.702z M72.951,98.948
		c1.43-2.26,2.451-3.873,3.779-5.971c-2.954-1.193-5.459-2.203-7.964-3.214c-0.227,0.28-0.454,0.562-0.68,0.843
		C69.485,93.004,70.885,95.405,72.951,98.948z M64.405,57.732c-3.461-0.021-6.83,4.996-6.945,10.537
		c2.287-3.201,4.419-6.16,6.509-9.149C64.229,58.75,64.26,58.218,64.405,57.732z"/>
	<path fill-rule="evenodd" clip-rule="evenodd" fill="none" d="M86.641,1.021c-4.796,2.576-9.084,5.211-15.299,2.421
		c-5.085-2.284-10.374,0.408-13.986,4.816c-2.788,3.401-5.164,7.139-7.726,10.727c-5.689,7.964-12.493,10.238-21.703,7.255
		c-6.395-2.073-9.862-1.201-13.621,4.292c-2.166,3.164-3.549,6.862-5.285,10.32c0-13.277,0-26.554,0-39.831
		C34.895,1.021,60.768,1.021,86.641,1.021z"/>
	<path fill-rule="evenodd" clip-rule="evenodd" fill="none" d="M161.009,197.351c-3.457-5.922-6.044-10.351-8.63-14.777
		c-0.42,0.21-0.841,0.421-1.261,0.631c1.943,4.417,3.888,8.832,6.296,14.302c-5.663,0.682-9.605,1.157-12.887,1.552
		c-1.673-5.369-3.159-10.139-4.646-14.908c-0.644,0.194-1.289,0.389-1.934,0.583c0.749,2.236,1.783,4.426,2.164,6.724
		c0.374,2.249,0.082,4.609,0.082,6.752c-0.639,0.322-0.923,0.573-1.23,0.605c-10.2,1.051-11.537-0.125-11.631-10.286
		c-0.036-3.884-0.006-7.768-0.006-11.949c2.356,0,3.989,0,5.622,0c-11.114-3.655-21.635-8.188-26.166-19.889
		c-4.535-11.711-1.619-22.625,6.01-32.659c-5.691,1.952-8.981,7.792-10.349,18.865c-1.779,14.424,4.628,24.533,17.64,31.139
		c-17.88,2.771-44.023-3.788-53.621-19.131c-6.617-10.578-6.351-21.706-3.875-33.075c3.586,3.953,6.897,7.866,10.504,11.484
		c2.293,2.301,4.464,1.792,7.007-0.512c5.274-4.78,11.109-8.936,16.507-13.587c12.16-10.479,26.456-10.263,40.864-7.672
		c2.732,0.49,4.722,5.123,6.457,8.493c-3.443-1.37-6.886-2.74-10.329-4.11c-0.368,0.484-0.736,0.968-1.104,1.451
		c11.398,4.01,19.416,11.214,22.145,22.875c2.67,11.407,1.716,22.28-6.301,32.036c1.251-0.493,2.502-0.985,3.595-1.415
		c4.205,4.929,8.158,9.814,12.402,14.434c2.252,2.452,5.299,5.073,3.315,8.21C166.254,195.726,162.592,196.504,161.009,197.351z"/>
	<path fill-rule="evenodd" clip-rule="evenodd" fill="none" d="M49.904,100.178c8.538,10.446,20.457,9.765,26.776-2.11
		c3.396-6.382,5.385-13.527,7.855-20.382c1.265-3.511,2.003-7.215,3.314-10.705c2.32-6.178,3.326-13.403,11.203-16.073
		c-5.106,0.747-10.196,1.632-15.321,2.213c-10.471,1.188-21.004,2.398-31.416-0.134c-7.322-1.781-13.98-0.992-20.507,2.852
		c-4.985,2.936-9.681,2.741-14.341-1.622c-7.604-7.119-7.583-18.645,1.002-24.874c1.981-1.437,5.74-1.981,8.041-1.157
		c12.021,4.312,21.212-2.313,31.084-6.465c-0.114-0.478-0.228-0.955-0.342-1.433c-2.075,0.625-4.15,1.252-6.365,1.92
		C57.354,7.379,65.626,2.282,75.421,7.716c-4.327,3.03-10.59,3.285-12.791,10.013c2.863-2.075,4.957-3.591,7.05-5.106
		c-4.046,9.168-8.954,17.067-20.306,17.98c-4.5,0.363-8.943,1.9-13.311,3.235c-1.614,0.493-2.935,1.944-4.313,2.904
		c7.646-1.7,15.134-3.486,22.676-5c4.934-0.991,8.794-3.297,11.682-7.464c3.096-4.47,6.105-9.064,9.709-13.107
		c9.468-10.621,22.436-10.538,30.998,0.822c4.519,5.993,8.35,12.998,10.55,20.143c4.527,14.708,7.751,29.816,11.759,45.746
		c-15.471-3.417-24.387,8.242-37.594,12.792c2.487-5.842,4.589-10.78,6.694-15.727c-0.108,0.024-0.766,0.172-2.019,0.454
		c0.628-1.911,1.164-3.541,1.699-5.169c-0.393-0.193-0.786-0.387-1.179-0.581c-1.061,2.374-2.246,4.702-3.158,7.131
		c-2.851,7.6-4.717,15.726-8.591,22.75c-5.92,10.736-20.193,13.651-30.777,7.427c-3.559-2.093-4.477-3.562-4.135-6.62
		L49.904,100.178z M89.756,46.984c0.053-0.222,0.104-0.445,0.157-0.667c0.678,0,1.357,0.023,2.035-0.003
		c8.468-0.331,14.801-4.416,16.298-10.505c1.705-6.933-1.794-13.169-9.778-17.584c-1.163-0.642-2.225-1.511-3.225-2.398
		c-6.292-5.587-12.492-4.135-16.288,3.569c-1.685,3.418-3.95,6.559-6.055,9.757c-1.208,1.836-2.738,3.464-3.926,5.311
		c-3.13,4.866-2.775,6.485,2.607,8.115C77.538,44.382,83.69,45.543,89.756,46.984z"/>
	<path fill-rule="evenodd" clip-rule="evenodd" fill="none" d="M162.102,89.17c-0.922,1.036-2.01,2.256-3.071,3.448
		c1.38,0.587,2.873,1.224,5.892,2.508c-2.955,0.859-4.481,1.302-6.43,1.868c1.621,1.023,2.987,1.885,5.298,3.342
		c-2.333,0.846-3.963,1.437-5.728,2.076c1.043,0.893,2.113,1.809,3.054,2.614c-2.594,2.473-4.944,4.715-7.577,7.225
		c-5.121-5.564-12.525-2.96-19.154-3.968c-5.191-0.789-10.506-0.749-15.724-1.408c-8.039-1.018-11.634-5.021-11.423-12.24
		c0.237-8.158,5.811-15.188,13.102-14.805c7.035,0.37,14.033,2.161,20.955,3.733C148.021,85.091,154.631,87.134,162.102,89.17z"/>
	<path fill-rule="evenodd" clip-rule="evenodd" fill="none" d="M93.538,175.954c-10.057,4.684-17.374,14.875-29.881,12.746
		c-1.6-0.272-3.082-1.235-4.619-1.877c0.974-2.282,1.535-4.909,3.058-6.732c1.156-1.384,3.538-1.744,5.818-2.757
		c-6.885-0.511-10.476,2.33-12.099,8.07c-1.495,5.288-5.472,1.317-8.27,2.049c-2.973-10.777,7.409-8.439,11.269-12.287
		c-9.171-0.198-13.826,3.229-14.905,12.474c-2.119-1.586-4.454-2.443-5.024-3.964c-0.919-2.445-0.97-5.356,2.578-6.588
		c6.413-2.227,12.736-4.721,19.188-6.821c1.407-0.458,3.212,0.197,4.812,0.469c1.913,0.324,3.801,0.786,6.083,0.605
		c-11.482-4.024-19.186-11.115-20.279-23.598c-0.583-6.653,1.281-12.702,6.83-19.054C56.641,155.151,70.05,169.194,93.538,175.954z"
		/>
	<path fill-rule="evenodd" clip-rule="evenodd" fill="none" d="M76.772,66.723c1.314,1.229,2.747,2.359,3.902,3.723
		c0.857,1.012,1.354,2.329,2.011,3.51c-1.312,0.462-2.592,1.096-3.942,1.339c-1.576,0.283-3.212,0.225-5.699,0.363
		c2.729,5.2,10.56,8.712,3.163,15.166c-2.775-0.822-6.078-1.8-9.38-2.779c-0.341,0.344-0.682,0.688-1.023,1.033
		c0.999,2.158,1.856,4.397,3.035,6.452c1.418,2.475,3.754,4.64,0.023,7.237c-3.963,2.758-8.786,3.165-10.958-0.206
		c-1.85-2.872-3.348-6.495-3.488-9.849c-0.563-13.461,4.925-24.739,13.893-34.467c0.733-0.795,1.97-1.492,3.021-1.567
		c5.547-0.396,11.108-0.578,16.82-0.84c0.275,7.616-4.908,9.215-11.402,9.408C76.754,65.738,76.763,66.23,76.772,66.723z"/>
	<path fill-rule="evenodd" clip-rule="evenodd" fill="none" d="M110.794,107.736c-11.157,7.281-22.155,14.458-33.643,21.955
		c-0.233-5.057-0.663-10.532-0.607-16.004c0.013-1.29,1.519-2.69,2.575-3.819c2.3-2.46,5.674-4.361,6.972-7.232
		c4.084-9.034,12.472-12.468,21.004-17.865C104.208,93.948,103.219,101.971,110.794,107.736z"/>
	<path fill-rule="evenodd" clip-rule="evenodd" fill="none" d="M155.437,134.217c10.87,6.302,21.901,12.697,33.664,19.515
		c-1.769,1.69-3.239,3.987-5.323,4.933c-8.604,3.901-17.379,7.435-26.128,11.01c-2.374,0.971-4.222-0.174-2.951-2.535
		C160.663,156.045,159.193,144.926,155.437,134.217z"/>
	<path fill-rule="evenodd" clip-rule="evenodd" fill="none" d="M157.984,69.176c-3.844,3.767-7.458,7.814-11.601,11.218
		c-3.846,3.161-14.626-1.387-15.628-6.229c-2.018-9.752-4.054-19.502-6.305-30.323c7.203,2.275,13.648,4.312,20.956,6.62
		c-2.798,3.02-4.982,5.307-7.084,7.668c-1.93,2.169-4.996,3.917-3.978,6.104c8.34,1.266,15.642,2.374,22.944,3.482
		C157.521,68.202,157.753,68.689,157.984,69.176z"/>
	<path fill-rule="evenodd" clip-rule="evenodd" fill="none" d="M42.385,92.646c1.324,2.756,2.648,5.51,4.477,9.317
		c-5.417-1.223-9.432-2.129-12.927-2.918c-0.962-2.171-1.808-4.081-2.295-5.182c0-2.605,0-4.594,0-6.529
		c0.889-1.755,1.908-3.769,2.973-5.871c1.182-0.603,2.763-1.407,4.875-2.483c1.858,0.91,4.386,2.147,7.218,3.533
		c-0.412,2.195-0.841,4.475-1.303,6.939c-1.501,0-2.933,0-5.501,0c1.234,1.556,1.938,2.445,2.651,3.341
		C42.56,92.801,42.385,92.646,42.385,92.646z"/>
	<path fill-rule="evenodd" clip-rule="evenodd" fill="none" d="M165.711,137.788c5.165-6.696,9.844-12.762,14.521-18.827
		c0.555,0.214,1.107,0.428,1.661,0.642c-0.937,8.063-1.874,16.127-2.957,25.441C174.21,142.45,170.34,140.327,165.711,137.788z"/>
	<path fill-rule="evenodd" clip-rule="evenodd" fill="none" d="M72.403,130.702c-2.402-3.911-5.374-7.596-7.06-11.796
		c-2.013-5.015-0.904-6.079,4.588-6.372c1.175-0.062,2.356-0.01,4.001-0.01c0,5.854,0,11.672,0,17.491
		C73.423,130.244,72.913,130.474,72.403,130.702z"/>
	<path fill-rule="evenodd" clip-rule="evenodd" fill="none" d="M50.066,100.339c-2.556-2.561-5.112-5.121-7.674-7.688
		c-0.006-0.005,0.168,0.149,0.161,0.143c1.194-0.386,2.554-1.324,3.568-1.039c3.034,0.854,6.46,1.792,6.556,5.805
		c0.02,0.848-1.806,1.738-2.777,2.614C49.904,100.178,50.066,100.339,50.066,100.339z"/>
	<path fill-rule="evenodd" clip-rule="evenodd" fill="none" d="M72.951,98.948c-2.066-3.542-3.466-5.943-4.866-8.343
		c0.227-0.281,0.454-0.562,0.68-0.843c2.505,1.011,5.01,2.021,7.964,3.214C75.402,95.075,74.381,96.688,72.951,98.948z"/>
	<path fill-rule="evenodd" clip-rule="evenodd" fill="none" d="M64.405,57.732c-0.145,0.485-0.176,1.017-0.436,1.388
		c-2.09,2.989-4.223,5.948-6.509,9.149C57.575,62.728,60.943,57.711,64.405,57.732z"/>
	<path fill-rule="evenodd" clip-rule="evenodd" fill="none" d="M39.226,64.25c-1.299-2.273-2.598-4.547-4.173-7.304
		c1.377-0.712,2.704-1.398,5.503-2.847c-0.562,4.215-0.954,7.151-1.337,10.111C39.228,64.234,39.226,64.25,39.226,64.25z"/>
	<path fill-rule="evenodd" clip-rule="evenodd" d="M89.756,46.984c-6.066-1.441-12.218-2.602-18.175-4.405
		c-5.382-1.63-5.738-3.249-2.607-8.115c1.188-1.847,2.718-3.475,3.926-5.311c2.105-3.199,4.371-6.339,6.055-9.757
		c3.796-7.704,9.996-9.156,16.288-3.569c1,0.887,2.062,1.756,3.225,2.398c7.984,4.415,11.483,10.651,9.778,17.584
		c-1.497,6.09-7.83,10.175-16.298,10.505c-0.677,0.026-1.356,0.003-2.035,0.003C89.861,46.54,89.809,46.762,89.756,46.984z
		 M94.823,43.798c0.351,0.162,0.701,0.324,1.052,0.487c0.727-1.054,1.813-2.013,2.122-3.178c2.095-7.906,1.238-15.582-2.987-22.577
		c-3.763-6.23-10.191-5.897-13.479,0.66c-3.218,6.418-3.873,13.24-2.176,20.313c0.887,3.701,2.825,5.098,5.252,4.478
		c0-5.823-0.551-11.244,0.219-16.471c0.422-2.868,3.071-5.408,4.715-8.096c1.76,2.44,4.673,4.721,5.043,7.356
		C95.368,32.348,94.823,38.111,94.823,43.798z"/>
	<path fill-rule="evenodd" clip-rule="evenodd" fill="none" d="M94.823,43.798c0-5.687,0.544-11.45-0.239-17.026
		c-0.37-2.636-3.283-4.916-5.043-7.356c-1.645,2.688-4.293,5.228-4.715,8.096c-0.77,5.227-0.219,10.648-0.219,16.471
		c-2.427,0.62-4.365-0.777-5.252-4.478c-1.696-7.073-1.042-13.895,2.176-20.313c3.288-6.558,9.716-6.891,13.479-0.66
		c4.225,6.995,5.082,14.67,2.987,22.577c-0.309,1.165-1.396,2.124-2.122,3.178C95.524,44.122,95.174,43.959,94.823,43.798z"/>
</g>
</svg>
